<?xml version="1.0" standalone="no"?>
<!DOCTYPE svg PUBLIC "-//W3C//DTD SVG 20010904//EN"
 "http://www.w3.org/TR/2001/REC-SVG-20010904/DTD/svg10.dtd">
<svg version="1.0" xmlns="http://www.w3.org/2000/svg"
 width="512.000000pt" height="512.000000pt" viewBox="0 0 512.000000 512.000000"
 preserveAspectRatio="xMidYMid meet">
<metadata>
Created by potrace 1.11, written by Peter Selinger 2001-2013
</metadata>
<g transform="translate(0.000000,512.000000) scale(0.100000,-0.100000)"
fill="#000000" stroke="none">
<path d="M1978 3875 c-114 -42 -180 -125 -207 -262 -1 -2 -1 -6 -1 -10 0 -5
-159 -8 -353 -9 -319 -1 -362 -3 -461 -23 -231 -47 -438 -156 -601 -318 -227
-225 -346 -503 -349 -813 -1 -168 7 -233 44 -359 59 -197 152 -355 295 -496
114 -114 181 -163 310 -227 71 -36 215 -91 215 -83 0 2 11 0 25 -5 76 -29 350
-48 434 -29 20 4 54 10 76 13 38 5 95 20 180 47 88 28 308 155 350 203 6 6 24
23 41 37 l31 25 556 0 556 -1 33 -30 c18 -16 35 -33 38 -36 16 -17 124 -91
180 -122 115 -63 240 -106 384 -130 80 -14 285 -15 361 -3 176 30 389 119 520
216 243 183 411 449 466 740 20 107 19 304 -1 416 -87 486 -444 851 -930 954
-96 21 -135 23 -464 24 l-360 2 -11 49 c-25 110 -89 186 -189 224 -48 18 -80
19 -591 20 -432 0 -547 -3 -577 -14z m1133 -214 c16 -16 29 -38 29 -48 0 -17
-25 -18 -585 -18 -322 0 -585 3 -585 8 0 16 23 52 44 69 19 16 64 18 544 18
l524 0 29 -29z m976 -276 c422 -68 749 -388 819 -803 34 -200 8 -400 -76 -579
-101 -216 -252 -370 -465 -473 -134 -66 -231 -90 -385 -97 -118 -5 -162 -1
-305 31 -115 25 -296 127 -410 232 -80 73 -22 68 -697 68 -422 1 -619 -2 -637
-10 -14 -6 -49 -32 -76 -58 -114 -108 -267 -192 -430 -237 -102 -28 -314 -35
-421 -14 -204 40 -365 126 -515 275 -196 195 -290 424 -290 708 0 51 2 96 4
100 3 4 8 29 11 55 4 27 18 85 32 130 110 348 420 614 782 671 113 18 2949 19
3059 1z"/>
<path d="M3883 3000 c-147 -8 -156 -27 -144 -302 1 -20 22 -50 72 -102 77 -82
107 -95 160 -73 32 13 136 121 151 156 4 9 7 67 7 129 1 118 -11 162 -48 178
-31 14 -108 19 -198 14z"/>
<path d="M1064 2943 c-62 -22 -117 -84 -128 -145 -3 -13 -5 -49 -5 -80 l-1
-58 -67 0 c-104 -1 -182 -47 -214 -125 -29 -75 -13 -242 29 -290 44 -52 82
-69 169 -73 l83 -5 1 -56 c1 -71 5 -95 25 -133 40 -78 108 -110 228 -107 165
3 234 70 237 227 l2 72 63 0 c35 0 65 -1 67 -1 6 -4 84 41 104 60 42 39 56 81
58 170 4 127 -27 196 -106 237 -35 18 -62 22 -135 23 l-52 1 -3 83 c-3 72 -8
89 -32 124 -44 63 -95 86 -197 88 -51 1 -103 -4 -126 -12z m157 -190 c0 -5 2
-58 4 -120 4 -154 21 -171 175 -171 47 0 93 -1 103 -1 14 -1 17 -10 17 -48 l0
-48 -102 1 c-112 2 -159 -11 -180 -50 -6 -11 -13 -70 -14 -131 -1 -60 -2 -112
-3 -115 -1 -3 -21 -4 -45 -2 l-44 4 -4 119 c-3 114 -4 120 -30 146 -26 25 -33
27 -130 29 -57 2 -111 3 -120 4 -15 0 -18 9 -18 45 0 36 4 45 18 46 9 0 63 1
119 2 96 2 104 4 128 28 32 31 33 38 34 167 l1 102 45 0 c25 0 45 -3 46 -7z"/>
<path d="M2186 2594 c-46 -17 -99 -72 -114 -119 -12 -43 -7 -116 12 -152 47
-92 171 -131 264 -84 46 24 66 45 90 100 41 91 2 199 -90 245 -58 29 -103 32
-162 10z"/>
<path d="M2780 2595 c-195 -88 -138 -377 75 -377 192 0 266 252 105 358 -49
32 -131 41 -180 19z"/>
<path d="M3378 2580 c-31 -32 -30 -25 -32 -174 -1 -118 9 -154 49 -176 29 -15
237 -19 271 -5 13 6 53 36 89 68 65 59 86 98 77 144 -4 23 -115 138 -154 160
-16 9 -63 12 -147 12 -123 -1 -125 -2 -153 -29z"/>
<path d="M4190 2597 c-38 -21 -130 -108 -147 -141 -26 -50 -11 -86 72 -165 83
-78 67 -73 237 -74 154 0 168 17 168 199 0 127 -11 162 -55 182 -37 17 -243
16 -275 -1z"/>
<path d="M3911 2312 c-29 -5 -156 -132 -168 -170 -14 -41 -9 -237 6 -266 22
-40 54 -50 169 -51 196 -2 209 9 211 187 0 84 -3 130 -12 146 -23 40 -137 150
-160 154 -12 2 -33 2 -46 0z"/>
</g>
</svg>
